<svg width="128" height="32" viewBox="0 0 128 32" fill="none" xmlns="http://www.w3.org/2000/svg">
<g clip-path="url(#clip0_128_2520)">
<g clip-path="url(#clip1_128_2520)">
<path d="M17 2C17 0.89543 17.8954 0 19 0H30C31.1046 0 32 0.895431 32 2V13C32 14.1046 31.1046 15 30 15H27C21.4772 15 17 10.5228 17 5V2Z" fill="#20A39E"/>
<path d="M17 27C17 21.4772 21.4772 17 27 17H30C31.1046 17 32 17.8954 32 19V22C32 27.5228 27.5228 32 22 32H19C17.8954 32 17 31.1046 17 30V27Z" fill="#99F787"/>
<path d="M0 19C0 17.8954 0.895431 17 2 17H5C10.5228 17 15 21.4772 15 27V30C15 31.1046 14.1046 32 13 32H2C0.89543 32 0 31.1046 0 30V19Z" fill="#3AAFDA"/>
<path d="M0 2C0 0.89543 0.895431 0 2 0H13C14.1046 0 15 0.895431 15 2V5C15 10.5228 10.5228 15 5 15H2C0.89543 15 0 14.1046 0 13V2Z" fill="#F05C5A"/>
</g>
<path d="M46.4097 19.1586L46.4751 19.1807C48.0675 19.7324 49.0055 20.5048 49.0055 21.3434C49.0055 21.7407 48.591 22.9103 47.3259 22.9103C46.6496 22.9103 44.8391 22.9103 43.225 21.1669L41 23.2855C42.047 24.411 43.2686 25.1834 44.6428 25.6248C45.7335 25.9559 46.6496 26 47.3259 26C48.7001 26 49.9435 25.4262 50.8378 24.411C51.6013 23.5503 52.0593 22.4248 52.0593 21.3434C52.0593 20.24 51.6449 19.2028 50.8596 18.32C50.0743 17.4593 48.94 16.7752 47.4786 16.2676C47.3477 16.2234 47.2168 16.1793 47.0423 16.1352C45.6462 15.7821 45.1009 15.3407 45.0791 14.5462C45.0573 14.0386 45.21 13.7959 45.3408 13.6634C45.7335 13.2441 46.497 13.0897 46.6933 13.0897C48.0239 13.0897 48.6565 13.509 49.6381 14.149L50.1834 14.5021L51.7758 11.8759L51.2741 11.5448C50.1616 10.8166 48.9182 10 46.6933 10C45.908 10 44.272 10.331 43.1377 11.5228C42.3524 12.3614 41.9598 13.4428 42.0252 14.6786C42.0907 16.1572 42.7669 17.349 43.9884 18.1655C44.861 18.7614 45.7989 19.0041 46.3006 19.1366L46.4097 19.1586Z" fill="black"/>
<path d="M61.6057 10.2207H60.7114L53.3385 24.8745V25.691H68.4551V24.8745L61.6057 10.2207ZM57.8975 22.6014L61.0822 16.2897L64.0052 22.6014H57.8975Z" fill="black"/>
<path d="M84.8113 10.2207L78.4419 16.091L72.0506 10.2207H71.0035V25.691H85.8802V10.2207H84.8113ZM74.0574 22.6014V16.2234L78.4419 20.2621L82.8263 16.2234V22.6014H74.0574Z" fill="black"/>
<path d="M88.6619 10.2207V25.691H91.7158V19.5117H93.6135C96.1439 19.5117 98.1943 17.4372 98.1943 14.8772C98.1943 12.3172 96.1439 10.2207 93.6135 10.2207H88.6619ZM91.7158 16.4221V13.3103H93.6135C94.4424 13.3103 95.1405 14.0166 95.1405 14.8772C95.1405 15.7379 94.4424 16.4221 93.6135 16.4221H91.7158Z" fill="black"/>
<path d="M103.646 10.2207H100.592V25.669H109.339V22.6014H103.646V10.2207Z" fill="black"/>
<path d="M121.941 10.2207H111.754V25.691H121.876V22.6014H114.808V19.2469H120.698V16.1572H114.808V13.3103H121.941V10.2207Z" fill="black"/>
<path d="M123.168 3.79999H120.078V4.59199H121.206V7.99999H122.034V4.59199H123.168V3.79999Z" fill="black"/>
<path d="M127.74 3.79999H126.888L125.688 5.78599L124.482 3.79999H123.63V7.99999H124.458V5.28199L125.64 7.22599H125.736L126.918 5.27599V7.99999H127.74V3.79999Z" fill="black"/>
</g>
<defs>
<clipPath id="clip0_128_2520">
<rect width="128" height="32" fill="white"/>
</clipPath>
<clipPath id="clip1_128_2520">
<rect width="32" height="32" fill="white"/>
</clipPath>
</defs>
</svg>
